<?xml version="1.0" encoding="utf-8"?>
<!-- Generator: Adobe Illustrator 21.0.2, SVG Export Plug-In . SVG Version: 6.00 Build 0)  -->
<svg version="1.1" id="Layer_1" xmlns="http://www.w3.org/2000/svg" xmlns:xlink="http://www.w3.org/1999/xlink" x="0px" y="0px"
	 viewBox="0 0 640.1 104.6" style="enable-background:new 0 0 640.1 104.6;" xml:space="preserve">
<style type="text/css">
	.st0{fill:#FFFFFF;}
	.st1{fill:url(#SVGID_1_);}
</style>
<title>logo-black</title>
<g>
	<path class="st0" d="M54.5,51.2c2.7,0,4.1-1.1,4.4-3.2v-6.1c-0.5-2-2-3.1-4.4-3.1H10V25.6h48.8c5.9,0,10.1,1.4,12.6,4.3
		c2.1,2.4,3.1,5.4,3.1,8.8v10.6c0,10.2-6.2,15.4-18.6,15.4H26.2v13.7H10V51.2H54.5z"/>
	<path class="st0" d="M83,25.6h16.2V56c0,5.2,3,7.9,9,7.9h16c6,0,9-2.6,9-7.9V25.6h16.2v33.9c0,12.9-5.4,19.4-16.2,19.4H99.2
		C88.4,78.9,83,72.5,83,59.5V25.6z"/>
	<path class="st0" d="M158,25.6h51.7c9.3,0,14,4.2,14,12.7c0,7.3-2.4,11.7-7.1,13.3v0.2c5.9,0.8,8.8,5.4,8.8,13.7
		c0,8.6-5.2,12.9-15.7,12.9H158V25.6z M174.1,65.7h30.7c2.7,0,4.1-1.6,4.1-4.8c0-2.9-1.4-4.4-4.2-4.4h-30.7L174.1,65.7z M174.1,46.5
		h30.3c2,0,3.1-1.4,3.1-4.1c0-2.8-1-4.2-3.1-4.2h-30.3V46.5z"/>
	<path class="st0" d="M233.8,25.6H250v39.2h36.6v13.5h-52.8V25.6z"/>
	<path class="st0" d="M295.2,25.6h16.2v52.7h-16.2V25.6z"/>
	<path class="st0" d="M319.9,25.6h16.2v18.8h34.1V25.6h16.2v52.7h-16.2V58.9h-34.1v19.5h-16.2V25.6z"/>
	<path class="st0" d="M394.8,44.1c0-12.7,6.5-19.1,19.4-19.1h33.3c13,0,19.5,6.4,19.5,19.1v15.7c0,12.7-6.5,19.1-19.5,19.1h-33.3
		c-12.9,0-19.4-6.4-19.4-19.1V44.1z M411.2,56.5c0,5.9,3.1,8.9,9.3,8.9h20.7c6.2,0,9.3-3,9.3-8.9v-9.1c0-5.9-3.4-8.8-10.1-8.8h-18.9
		c-6.7,0-10.1,2.9-10.1,8.8V56.5z"/>
	<path class="st0" d="M475.5,25.6h24.8l18.3,33.9l18.3-33.9h24.8v52.7H546V41l-21.3,37.4h-12.1L491.2,41v37.4h-15.7V25.6z"/>
	<path class="st0" d="M591.9,38.9h19.5h5.8h6.1h7.8V25.5h-7.8h-0.7h-5.4H613h-26.3h-16.5v14.9v23.5V79h16.5v-0.2
		c0.5,0,0.9,0.1,1.3,0.1l1.9,0V79h27.3h6.1h7.8v0v-0.5v-8.1v-4.7v-0.1h-7.8h-6.1H592c0,0,0,0,0,0h-5.2v-7.9H618V46.8h-31.3h0v-7.9
		H591.9z"/>
	<g>
		<path class="st0" d="M444.6,49.9c-0.3-4.3-3-6.6-8.3-6.6h-4.1h-4.4h-2.2c-5.3,0-8,2.3-8.3,6.6h-0.1v0.8v2.6v1h0.2
			c0.4,4.2,2.8,6.4,7.6,6.4h2.9h4.4h4.9c4.7,0,7.2-2.2,7.6-6.4h0.2v-1v-2.6v-0.8H444.6z"/>
	</g>
	<g>
		<linearGradient id="SVGID_1_" gradientUnits="userSpaceOnUse" x1="458.3752" y1="85.835" x2="404.8727" y2="19.7031">
			<stop  offset="0.1182" style="stop-color:#000000;stop-opacity:0"/>
			<stop  offset="1" style="stop-color:#000000"/>
		</linearGradient>
		<path class="st1" d="M460.5,28.5l-14.7,11.2c3,1.3,4.6,3.8,4.6,7.7v9.1c0,5.9-3.1,8.9-9.3,8.9h-20.7c-2.7,0-4.7-0.7-6.2-1.8
			L400,74.4c3.2,3,7.9,4.5,14.2,4.5h33.3c13,0,19.5-6.4,19.5-19.1V44.1C467,36.8,464.8,31.6,460.5,28.5z"/>
	</g>
</g>
</svg>
